<svg width="50" height="50" viewBox="0 0 50 50" fill="none" xmlns="http://www.w3.org/2000/svg">
<circle cx="25" cy="25" r="23.5" stroke="black" stroke-width="3"/>
<path d="M18 16V20M32 30V34M16 18H20M30 32H34M25 16L23.088 21.813C22.9901 22.1105 22.8238 22.3809 22.6023 22.6023C22.3809 22.8238 22.1105 22.9901 21.813 23.088L16 25L21.813 26.912C22.1105 27.0099 22.3809 27.1762 22.6023 27.3977C22.8238 27.6191 22.9901 27.8895 23.088 28.187L25 34L26.912 28.187C27.0099 27.8895 27.1762 27.6191 27.3977 27.3977C27.6191 27.1762 27.8895 27.0099 28.187 26.912L34 25L28.187 23.088C27.8895 22.9901 27.6191 22.8238 27.3977 22.6023C27.1762 22.3809 27.0099 22.1105 26.912 21.813L25 16Z" stroke="black" stroke-width="3" stroke-linecap="round" stroke-linejoin="round"/>
</svg>
