<svg width="32" height="32" viewBox="0 0 32 32" fill="none" xmlns="http://www.w3.org/2000/svg">
<path d="M12 16H12.0133M20 16H20.0133M13.3333 21.3333C14 21.7333 14.9333 22 16 22C17.0667 22 18 21.7333 18.6667 21.3333" stroke="black" stroke-width="2" stroke-linecap="round" stroke-linejoin="round"/>
<path d="M25.3334 8.4C26.5413 9.91423 27.3648 11.6984 27.7334 13.6C28.1842 13.8184 28.5644 14.1593 28.8305 14.5838C29.0965 15.0082 29.2376 15.499 29.2376 16C29.2376 16.501 29.0965 16.9918 28.8305 17.4162C28.5644 17.8407 28.1842 18.1816 27.7334 18.4C27.1577 21.0846 25.6789 23.4907 23.5436 25.2167C21.4083 26.9427 18.7457 27.8843 16 27.8843C13.2544 27.8843 10.5917 26.9427 8.45644 25.2167C6.32113 23.4907 4.84229 21.0846 4.26668 18.4C3.81583 18.1816 3.4356 17.8407 3.16955 17.4162C2.9035 16.9918 2.76239 16.501 2.76239 16C2.76239 15.499 2.9035 15.0082 3.16955 14.5838C3.4356 14.1593 3.81583 13.8184 4.26668 13.6C4.81904 10.894 6.28788 8.46136 8.42539 6.71249C10.5629 4.96362 13.2382 4.00557 16 4C18.6667 4 20.6667 5.46667 20.6667 7.33333C20.6667 9.2 19.4667 10.6667 18 10.6667C16.9334 10.6667 16 10.1333 16 9.33333" stroke="black" stroke-width="2" stroke-linecap="round" stroke-linejoin="round"/>
</svg>
