<svg width="32" height="32" viewBox="0 0 32 32" fill="none" xmlns="http://www.w3.org/2000/svg">
<path d="M16 29.3334C23.3638 29.3334 29.3333 23.3639 29.3333 16.0001C29.3333 8.63628 23.3638 2.66675 16 2.66675C8.63616 2.66675 2.66663 8.63628 2.66663 16.0001C2.66663 23.3639 8.63616 29.3334 16 29.3334Z" stroke="black" stroke-width="2" stroke-linecap="round" stroke-linejoin="round"/>
<path d="M21.3333 10.6667H13.3333C12.626 10.6667 11.9478 10.9476 11.4477 11.4477C10.9476 11.9478 10.6666 12.6261 10.6666 13.3333C10.6666 14.0406 10.9476 14.7189 11.4477 15.219C11.9478 15.719 12.626 16 13.3333 16H18.6666C19.3739 16 20.0521 16.281 20.5522 16.781C21.0523 17.2811 21.3333 17.9594 21.3333 18.6667C21.3333 19.3739 21.0523 20.0522 20.5522 20.5523C20.0521 21.0524 19.3739 21.3333 18.6666 21.3333H10.6666M16 24V8" stroke="black" stroke-width="2" stroke-linecap="round" stroke-linejoin="round"/>
</svg>
